<svg width="12" height="12" xmlns="http://www.w3.org/2000/svg">
<path d="M3 0H9H10.8C11.4627 0 12 0.541971 12 1.21053V2.42105C12 3.08961 11.4627 3.63158 10.8 3.63158H10.7519L10.2 10.2895C10.2 10.958 9.66274 11.5 9 11.5H3C2.33726 11.5 1.8 10.958 1.80207 10.3397L1.24792 3.63158H1.2C0.537258 3.63158 0 3.08961 0 2.42105V1.21053C0 0.541971 0.537258 0 1.2 0H3ZM3 1.21053H1.2V2.42105H10.8V1.21053H9H3ZM2.45189 3.63158L3 10.2895H9L9.00207 10.2392L9.54792 3.63158H2.45189Z" fill="black" fill-opacity="0.65"/>
</svg>