<?xml version="1.0"?>
<svg xmlns="http://www.w3.org/2000/svg" xmlns:xlink="http://www.w3.org/1999/xlink" version="1.1" id="Capa_1" x="0px" y="0px" viewBox="0 0 512.01 512.01" style="enable-background:new 0 0 512.01 512.01;" xml:space="preserve" width="512px" height="512px"><g transform="matrix(6.12323e-17 1 -1 6.12323e-17 512.01 0)"><g>
	<g>
		<path d="M465.755,240.717l-42.488-42.496c-8.441-8.434-22.112-8.434-30.554,0c-8.442,8.441-8.442,22.127,0,30.561l42.488,42.496    c44.887,44.894,44.844,118.469,0,163.918c-44.88,44.88-118.455,44.844-163.918,0l-42.496-42.488    c-8.434-8.441-22.119-8.441-30.561,0c-8.442,8.442-8.442,22.119,0,30.554l42.596,42.596    c31.166,30.748,71.947,46.133,112.642,46.133c40.781,0,81.491-15.45,112.397-46.342    C527.432,403.238,527.388,302.343,465.755,240.717z" data-original="#000000" class="active-path" fill="#000000"/>
	</g>
</g><g>
	<g>
		<path d="M313.772,88.749l-42.596-42.604c-62.396-61.561-163.298-61.511-225.032,0.209    c-61.568,62.404-61.518,163.298,0.108,224.924l42.496,42.496c4.214,4.221,9.745,6.331,15.277,6.331    c5.524,0,11.056-2.11,15.277-6.338c8.441-8.434,8.441-22.119,0-30.554l-42.496-42.496c-44.887-44.887-44.844-118.462,0-163.911    c44.894-44.88,118.469-44.836,163.918,0l42.496,42.496c8.442,8.442,22.112,8.442,30.554,0    C322.214,110.868,322.214,97.183,313.772,88.749z" data-original="#000000" class="active-path" fill="#000000"/>
	</g>
</g><g>
	<g>
		<path d="M326.017,295.472l-109.48-109.48c-8.434-8.442-22.119-8.442-30.554,0c-8.441,8.434-8.441,22.119,0,30.554l109.48,109.48    c4.221,4.221,9.745,6.331,15.277,6.331s11.056-2.11,15.277-6.331C334.458,317.591,334.458,303.906,326.017,295.472z" data-original="#000000" class="active-path" fill="#000000"/>
	</g>
</g></g> </svg>
