<?xml version="1.0" encoding="iso-8859-1"?>
<!-- Generator: Adobe Illustrator 16.0.0, SVG Export Plug-In . SVG Version: 6.00 Build 0)  -->
<!DOCTYPE svg PUBLIC "-//W3C//DTD SVG 1.1//EN" "http://www.w3.org/Graphics/SVG/1.1/DTD/svg11.dtd">
<svg version="1.1" id="Capa_1" xmlns="http://www.w3.org/2000/svg" xmlns:xlink="http://www.w3.org/1999/xlink" x="0px" y="0px"
	 width="612px" height="612px" viewBox="0 0 612 612" style="enable-background:new 0 0 612 612;" xml:space="preserve">
<g>
	<g id="Link">
		<g>
			<path d="M350.179,215.462c-6.693-4.303-14.497-5.47-21.707-3.863c-7.134,1.587-13.674,5.89-17.939,12.527
				c-4.284,6.674-5.45,14.439-3.862,21.611c1.567,7.172,5.871,13.75,12.526,18.016c27.674,17.729,44.179,47.832,44.179,80.497
				c0,25.551-9.945,49.553-27.999,67.606l-114.75,114.75c-18.073,18.073-42.094,28.019-67.626,28.019
				c-52.728,0-95.625-42.897-95.625-95.625c0-25.551,9.945-49.553,27.999-67.606l54.43-54.449c5.737-5.737,8.53-13.292,8.415-20.808
				c-0.134-7.172-2.926-14.287-8.415-19.757c-5.604-5.604-12.948-8.415-20.272-8.415c-7.344,0-14.688,2.792-20.272,8.415
				l-54.43,54.449C15.912,379.708,0,418.13,0,459c0,84.36,68.64,153,153,153c40.87,0,79.292-15.912,108.19-44.829l114.75-114.75
				c28.897-28.859,44.81-67.301,44.81-108.171C420.75,291.943,394.377,243.806,350.179,215.462z M459,0
				c-40.87,0-79.292,15.912-108.19,44.829l-114.75,114.75c-28.898,28.859-44.81,67.301-44.81,108.152
				c0,52.307,26.374,100.463,70.571,128.807c6.694,4.283,14.497,5.45,21.707,3.844c7.133-1.568,13.674-5.871,17.939-12.508
				c4.284-6.693,5.451-14.458,3.863-21.63c-1.568-7.172-5.871-13.751-12.527-17.997c-27.655-17.748-44.179-47.851-44.179-80.516
				c0-25.551,9.945-49.553,27.999-67.607l114.75-114.75C409.447,67.32,433.468,57.375,459,57.375
				c52.728,0,95.625,42.897,95.625,95.606c0,25.551-9.945,49.553-27.999,67.607l-54.43,54.43c-5.737,5.737-8.53,13.292-8.415,20.808
				c0.134,7.172,2.926,14.287,8.415,19.756c5.604,5.604,12.947,8.396,20.292,8.396c7.344,0,14.688-2.792,20.272-8.396l54.43-54.449
				C596.088,232.292,612,193.851,612,152.981C612,68.64,543.36,0,459,0z"/>
		</g>
	</g>
</g>
<g>
</g>
<g>
</g>
<g>
</g>
<g>
</g>
<g>
</g>
<g>
</g>
<g>
</g>
<g>
</g>
<g>
</g>
<g>
</g>
<g>
</g>
<g>
</g>
<g>
</g>
<g>
</g>
<g>
</g>
</svg>
