<?xml version="1.0" encoding="iso-8859-1"?>
<!-- Generator: Adobe Illustrator 19.0.0, SVG Export Plug-In . SVG Version: 6.00 Build 0)  -->
<svg version="1.1" id="Capa_1" xmlns="http://www.w3.org/2000/svg" xmlns:xlink="http://www.w3.org/1999/xlink" x="0px" y="0px"
	 viewBox="0 0 468.293 468.293" style="enable-background:new 0 0 468.293 468.293;" xml:space="preserve">
<path style="fill:#EBEFF2;" d="M468.293,104.18v259.933c0,5.62-1.873,10.864-4.995,14.986c-4.558,6.056-11.802,9.989-19.98,9.989
	H24.976c-8.179,0-15.422-3.933-19.981-9.989C1.873,374.978,0,369.734,0,364.113V104.18c0-4.933,1.436-9.553,3.996-13.487
	c4.433-6.931,12.175-11.489,20.979-11.489h418.342c8.803,0,16.546,4.558,20.979,11.489
	C466.857,94.627,468.293,99.247,468.293,104.18z"/>
<path style="fill:#D4D5DB;" d="M463.298,379.099c-4.558,6.056-11.802,9.989-19.98,9.989H24.976c-8.179,0-15.422-3.933-19.981-9.989
	l229.152-153.288L463.298,379.099z"/>
<path style="fill:#647989;" d="M464.296,90.693L246.724,287.843c-7.138,6.468-18.018,6.468-25.156,0L3.996,90.693
	c4.433-6.931,12.175-11.489,20.979-11.489h418.342C452.121,79.205,459.864,83.763,464.296,90.693z"/>
<path style="fill:#E0E5E8;" d="M464.296,90.693L246.065,270.678c-6.921,5.708-16.916,5.708-23.837,0L3.996,90.693
	c4.433-6.931,12.175-11.489,20.979-11.489h418.342C452.121,79.205,459.864,83.763,464.296,90.693z"/>
<g>
</g>
<g>
</g>
<g>
</g>
<g>
</g>
<g>
</g>
<g>
</g>
<g>
</g>
<g>
</g>
<g>
</g>
<g>
</g>
<g>
</g>
<g>
</g>
<g>
</g>
<g>
</g>
<g>
</g>
</svg>
