<?xml version="1.0" encoding="iso-8859-1"?>
<!-- Generator: Adobe Illustrator 19.0.0, SVG Export Plug-In . SVG Version: 6.00 Build 0)  -->
<svg version="1.1" id="Layer_1" xmlns="http://www.w3.org/2000/svg" xmlns:xlink="http://www.w3.org/1999/xlink" x="0px" y="0px"
	 viewBox="0 0 504.123 504.123" style="enable-background:new 0 0 504.123 504.123;" xml:space="preserve">
<path style="fill:#415F6F;" d="M486.006,355.446l18.117-10.24c-1.182-6.695-2.757-13.391-5.12-20.086h-20.874l-11.422-20.086
	l10.634-18.117c-4.332-5.12-9.058-10.24-14.572-14.572l-18.117,10.24l-20.086-11.815v-20.874c-0.394,0-0.788-0.394-1.575-0.394
	c-5.908-1.969-12.209-3.938-18.511-5.12l-10.634,18.117h-23.237l-10.24-18.117c-6.695,1.182-13.391,2.757-20.086,5.12v20.874
	l-20.086,11.422l-18.117-10.634c-5.12,4.332-10.24,9.058-14.572,14.572l10.24,18.117l-11.815,20.086h-20.874
	c-2.363,6.695-4.332,12.997-5.514,19.692l18.117,10.634v23.237l-18.117,10.24c1.182,6.695,2.757,13.391,5.12,20.086h20.874
	l11.422,20.086l-10.634,18.117c4.332,5.12,9.058,10.24,14.572,14.572l18.117-10.24l20.086,11.815v20.874
	c0.394,0,0.788,0.394,1.575,0.394c5.908,1.969,12.209,3.938,18.511,5.12l10.634-18.117h23.237l10.24,18.117
	c6.695-1.182,13.391-2.757,20.086-5.12v-20.874l20.086-11.422l18.117,10.634c5.12-4.332,10.24-9.058,14.572-14.572l-10.24-18.117
	l11.815-20.086h20.874c2.363-6.695,4.332-12.997,5.514-19.692l-18.117-10.634V355.446z M382.031,435.003
	c-37.809,0-68.923-30.72-68.923-68.529s30.72-68.923,68.923-68.923c37.809,0,68.923,30.72,68.923,68.529
	S419.84,435.003,382.031,435.003z"/>
<path style="fill:#26A6D1;" d="M274.905,240.049c0-7.483-0.394-15.36-1.575-22.843l-22.449-4.726l-8.271-24.418l15.36-17.329
	c-3.545-6.695-7.877-12.997-12.603-18.905l-22.055,7.483l-19.298-16.935l4.726-22.843c-6.695-3.938-13.391-7.483-20.48-10.24
	l-14.966,17.329l-25.206-5.12l-7.483-22.055c-7.483,0-15.36,0.394-22.843,1.575l-4.726,22.449l-24.418,8.271l-17.329-15.36
	c-6.695,3.545-12.997,7.877-18.905,12.603l7.483,22.055l-16.935,19.298l-22.843-4.726c-3.938,6.695-7.483,13.391-10.24,20.48
	l17.329,15.36l-5.12,25.206L0,233.748c0,7.483,0.394,15.36,1.575,22.843l22.843,4.726l8.271,24.418l-15.36,17.329
	c3.545,6.695,7.877,12.997,12.603,18.905l22.055-7.483l19.298,16.935l-5.12,22.843c6.695,3.938,13.391,7.483,20.48,10.24
	l15.36-17.329l25.206,5.12l7.483,22.055c7.483,0,15.36-0.394,22.843-1.575l4.726-22.449l24.418-8.271l17.329,15.36
	c6.695-3.545,12.997-7.877,18.905-12.603l-7.483-22.055l16.935-19.298l22.843,4.726c3.938-6.695,7.483-13.391,10.24-20.48
	l-17.329-15.36l5.12-25.206L274.905,240.049L274.905,240.049z M137.452,312.911c-42.142,0-76.406-34.265-76.406-76.406
	s34.265-76.406,76.406-76.406s76.406,34.265,76.406,76.406S179.594,312.911,137.452,312.911z"/>
<path style="fill:#638090;" d="M456.862,125.046l16.542-6.695c-0.394-5.908-1.182-11.815-2.363-17.723l-17.723-2.363l-7.483-18.511
	l11.028-14.178c-3.151-5.12-6.695-9.846-10.634-14.178l-16.542,6.695l-15.754-12.209l2.363-17.723l-1.182-0.788
	c-5.12-2.363-10.24-4.726-15.36-6.302l-11.028,14.178l-19.692-2.757l-6.695-16.935c-5.908,0.394-11.815,0.788-17.723,1.969
	l-2.363,17.723l-18.905,7.877L309.17,32.098c-5.12,3.151-9.846,6.695-14.178,10.634l6.695,16.542l-12.209,15.754l-17.723-2.363
	c-2.757,5.12-5.12,10.634-7.089,16.542l14.178,11.028l-2.757,19.692l-16.542,6.695c0.394,5.908,1.182,11.815,2.363,17.723
	l17.723,2.363l7.483,18.511l-11.028,14.178c3.151,5.12,6.695,9.846,10.634,14.178l16.542-6.695l15.754,12.209l-2.363,17.723
	l1.182,0.788c5.12,2.363,10.24,4.726,15.36,6.302l11.028-14.178l19.692,2.757l6.695,16.542c5.908-0.394,11.815-0.788,17.723-2.363
	l2.363-17.723l18.511-7.483l14.178,11.028c5.12-3.151,9.846-6.695,14.178-10.634l-6.695-16.542l12.209-15.754l17.723,2.363
	c2.757-5.12,5.12-10.634,7.089-16.542l-14.178-11.028C453.711,144.345,456.862,125.046,456.862,125.046z M366.671,183.335
	c-33.871,0-61.046-27.175-61.046-61.046s27.175-61.046,61.046-61.046s61.046,27.175,61.046,61.046S400.542,183.335,366.671,183.335z
	"/>
<g>
</g>
<g>
</g>
<g>
</g>
<g>
</g>
<g>
</g>
<g>
</g>
<g>
</g>
<g>
</g>
<g>
</g>
<g>
</g>
<g>
</g>
<g>
</g>
<g>
</g>
<g>
</g>
<g>
</g>
</svg>
