<?xml version="1.0" encoding="iso-8859-1"?>
<!-- Generator: Adobe Illustrator 19.0.0, SVG Export Plug-In . SVG Version: 6.00 Build 0)  -->
<svg version="1.1" id="Capa_1" xmlns="http://www.w3.org/2000/svg" xmlns:xlink="http://www.w3.org/1999/xlink" x="0px" y="0px"
	 viewBox="0 0 468.293 468.293" style="enable-background:new 0 0 468.293 468.293;" xml:space="preserve">
<circle style="fill:#FAD362;" cx="99.559" cy="147.926" r="47.653"/>
<path style="fill:#F4C158;" d="M149.098,186.425c-9.374,17.786-28.035,29.919-49.538,29.919c-21.503,0-40.163-12.132-49.538-29.919
	c-3.023,1.923-44.357,29.391-49.954,97.366c-0.69,8.376,3.851,16.329,11.333,20.157c12.839,6.568,38.519,14.34,88.158,14.34
	c49.639,0,75.319-7.773,88.158-14.34c7.482-3.827,12.023-11.781,11.333-20.157C193.455,215.816,152.121,188.348,149.098,186.425z"/>
<circle style="fill:#4EBD9E;" cx="368.702" cy="147.926" r="47.653"/>
<path style="fill:#3CA59A;" d="M418.27,186.425c-9.374,17.786-28.035,29.919-49.538,29.919c-21.503,0-40.163-12.132-49.538-29.919
	c-3.023,1.923-44.357,29.391-49.954,97.366c-0.69,8.376,3.851,16.329,11.333,20.157c12.839,6.568,38.519,14.34,88.158,14.34
	c49.639,0,75.319-7.773,88.158-14.34c7.482-3.827,12.023-11.781,11.333-20.157C462.627,215.816,421.293,188.348,418.27,186.425z"/>
<circle style="fill:#29A1DA;" cx="234.271" cy="171.565" r="54.959"/>
<path style="fill:#2D92BA;" d="M291.397,215.947c-10.811,20.512-32.331,34.504-57.13,34.504c-24.799,0-46.319-13.992-57.13-34.504
	c-3.519,2.238-52.034,34.48-57.777,114.459c-0.579,8.069,3.629,15.718,10.673,19.697c13.836,7.817,43.47,17.916,104.234,17.916
	c60.764,0,90.399-10.1,104.234-17.916c7.044-3.979,11.252-11.628,10.673-19.697C343.43,250.427,294.915,218.185,291.397,215.947z"/>
<g>
</g>
<g>
</g>
<g>
</g>
<g>
</g>
<g>
</g>
<g>
</g>
<g>
</g>
<g>
</g>
<g>
</g>
<g>
</g>
<g>
</g>
<g>
</g>
<g>
</g>
<g>
</g>
<g>
</g>
</svg>
