<svg xmlns="http://www.w3.org/2000/svg" width="12" height="12" fill="none" viewBox="0 0 12 12">
    <path fill="#F5222D" d="M5.685 9.647a.463.463 0 0 0 .657 0l2.087-2.088a.463.463 0 0 0-.653-.655L6.478 8.202V.463a.464.464 0 0 0-.927 0v7.739L4.254 6.904a.462.462 0 0 0-.654 0 .464.464 0 0 0-.001.655l2.086 2.088zm5.852-1.927a.464.464 0 0 0-.464.463V10.8a.276.276 0 0 1-.276.276H1.201a.276.276 0 0 1-.276-.276V8.182a.464.464 0 0 0-.925 0v2.985c0 .46.374.832.832.832h10.336c.46 0 .832-.374.832-.832V8.182a.463.463 0 0 0-.463-.462z" opacity=".65"/>
</svg>
