<svg width="16" height="16" xmlns="http://www.w3.org/2000/svg"><path d="M11.2063 4.78438C10.9859 4.56563 10.6297 4.56563 10.4109 4.78594L8 7.20312L5.58906 4.78594C5.37031 4.56563 5.01406 4.56563 4.79375 4.78438C4.57344 5.00313 4.57344 5.35938 4.79219 5.57969L7.20625 8L4.79219 10.4203C4.57344 10.6406 4.57344 10.9969 4.79375 11.2156C4.90313 11.325 5.04688 11.3797 5.19063 11.3797C5.33437 11.3797 5.47969 11.325 5.58906 11.2141L8 8.79688L10.4109 11.2156C10.5203 11.3266 10.6656 11.3813 10.8094 11.3813C10.9531 11.3813 11.0969 11.3266 11.2063 11.2172C11.4266 10.9984 11.4266 10.6422 11.2078 10.4219L8.79375 8L11.2063 5.57969C11.4266 5.35938 11.4266 5.00313 11.2063 4.78438ZM8 0C3.58125 0 0 3.58125 0 8C0 12.4188 3.58125 16 8 16C12.4188 16 16 12.4188 16 8C16 3.58125 12.4188 0 8 0ZM12.8609 12.8609C12.2297 13.4922 11.4938 13.9891 10.675 14.3344C9.82813 14.6938 8.92813 14.875 8 14.875C7.07188 14.875 6.17188 14.6938 5.325 14.3359C4.50625 13.9891 3.77188 13.4938 3.13906 12.8625C2.50781 12.2313 2.01094 11.4953 1.66562 10.6766C1.30625 9.82812 1.125 8.92813 1.125 8C1.125 7.07188 1.30625 6.17188 1.66406 5.325C2.01094 4.50625 2.50625 3.77188 3.1375 3.13906C3.76875 2.50781 4.50469 2.01094 5.32344 1.66562C6.17188 1.30625 7.07188 1.125 8 1.125C8.92813 1.125 9.82813 1.30625 10.675 1.66406C11.4938 2.01094 12.2281 2.50625 12.8609 3.1375C13.4922 3.76875 13.9891 4.50469 14.3344 5.32344C14.6938 6.17188 14.875 7.07188 14.875 8C14.875 8.92813 14.6938 9.82813 14.3359 10.675C13.9891 11.4938 13.4938 12.2297 12.8609 12.8609Z" fill="#F5222D"/></svg>