<svg width="16" height="16" xmlns="http://www.w3.org/2000/svg"><path d="M15.38 8.63a.62.62 0 1 0 0-1.26h-1.84v-1.2h1.84a.62.62 0 1 0 0-1.25h-1.84V3.08a.62.62 0 0 0-.62-.62h-1.84V.63a.62.62 0 1 0-1.25 0v1.83h-1.2V.63a.62.62 0 1 0-1.26 0v1.83h-1.2V.63a.62.62 0 1 0-1.25 0v1.83H3.08a.62.62 0 0 0-.62.62v1.84H.63a.62.62 0 1 0 0 1.25h1.83v1.2H.63a.62.62 0 1 0 0 1.25h1.83v1.21H.63a.62.62 0 1 0 0 1.25h1.83v1.84c0 .34.28.62.62.62h1.84v1.84a.62.62 0 1 0 1.25 0v-1.84h1.2v1.84a.62.62 0 1 0 1.25 0v-1.84h1.21v1.84a.62.62 0 1 0 1.25 0v-1.84h1.84c.34 0 .62-.28.62-.62v-1.84h1.84a.62.62 0 1 0 0-1.25h-1.84v-1.2h1.84zm-3.09 3.66H3.71V3.71h8.58v8.58z" fill="#000" fill-opacity=".65"/></svg>