<svg xmlns="http://www.w3.org/2000/svg" width="14" height="14" fill="none" viewBox="0 0 14 14">
    <path fill="#fff" d="M11.935 6.698a3.034 3.034 0 0 0-.899-.609c.386-.198.717-.487.964-.843.302-.434.462-.94.462-1.467 0-1.44-1.2-2.612-2.677-2.612-.559 0-1.094.166-1.548.48a2.617 2.617 0 0 0-.898 1.07 2.698 2.698 0 0 0-1.961-.834C3.902 1.883 2.7 3.055 2.7 4.496c0 .526.16 1.032.462 1.466.247.356.578.644.964.844-.333.147-.635.351-.899.61a2.916 2.916 0 0 0-.895 2.098v2.14c0 .65.542 1.18 1.21 1.18h3.673c.485 0 .923-.287 1.112-.718h3.297c.665 0 1.209-.528 1.209-1.18v-2.14a2.925 2.925 0 0 0-.899-2.098zM8.562 2.585c.326-.32.76-.495 1.223-.495.463 0 .897.175 1.223.495a1.657 1.657 0 0 1 0 2.387c-.326.32-.76.495-1.223.495-.463 0-.897-.175-1.223-.495a1.652 1.652 0 0 1-.507-1.193c0-.452.18-.876.507-1.194zm-4.916 1.91c0-.451.18-.875.507-1.193.326-.32.76-.495 1.223-.495.464 0 .898.175 1.224.495a1.656 1.656 0 0 1 0 2.387c-.326.32-.76.495-1.224.495-.461 0-.897-.175-1.224-.495a1.658 1.658 0 0 1-.506-1.193zm3.828 7.157a.262.262 0 0 1-.26.255H3.54a.258.258 0 0 1-.261-.255V9.514c0-.544.218-1.057.616-1.445a2.108 2.108 0 0 1 1.481-.602 2.108 2.108 0 0 1 1.5.62l.003.005c.384.384.595.89.595 1.424v2.137zM7.24 7.167a3.022 3.022 0 0 0-.612-.362 2.656 2.656 0 0 0 1.195-1.248c.205.214.445.395.71.531a3.04 3.04 0 0 0-1.293 1.08zm4.643 3.77c0 .14-.117.254-.26.254h-3.2V9.513c0-.588-.177-1.153-.51-1.639a2.107 2.107 0 0 1 1.872-1.125c.558 0 1.084.213 1.482.602.398.388.616.901.616 1.445v2.14z"/>
</svg>
