<svg xmlns="http://www.w3.org/2000/svg" width="12" height="12" fill="none" viewBox="0 0 12 12">
    <path fill="#F5222D" d="M6 0a6 6 0 1 0 0 12A6 6 0 1 0 6 0zm3.646 9.646A5.13 5.13 0 0 1 6 11.156a5.128 5.128 0 0 1-3.646-1.51A5.13 5.13 0 0 1 .844 6a5.126 5.126 0 0 1 1.51-3.646A5.13 5.13 0 0 1 6 .844a5.126 5.126 0 0 1 3.646 1.51A5.13 5.13 0 0 1 11.156 6a5.128 5.128 0 0 1-1.51 3.646zm-2.26-1.377h-1V4.166a.422.422 0 0 0-.421-.422H4.84a.422.422 0 1 0 0 .844h.703v3.68h-.998a.422.422 0 1 0 0 .845h2.84a.422.422 0 1 0 0-.844zM5.542 2.584a.422.422 0 1 0 .844 0 .422.422 0 0 0-.844 0z"/>
</svg>
