<svg width="24" height="24" fill="none" xmlns="http://www.w3.org/2000/svg"><circle cx="12" cy="12" r="12" fill="#EFEFEF"/><path d="M15.959 14.412c-.196 0-.392-.025-.583-.073-1.15-.29-2.095-1.147-2.44-2.277v-.055a3.869 3.869 0 0 1 2.209-2.142c.26-.096.536-.144.814-.144 1.294 0 2.358 1.058 2.358 2.345a2.363 2.363 0 0 1-2.358 2.346zm-4.894-2.35c-.345 1.13-1.29 1.987-2.44 2.277-.19.048-.387.073-.583.073-1.294 0-2.359-1.06-2.359-2.346 0-1.287 1.065-2.345 2.359-2.345.278 0 .554.048.815.144a3.867 3.867 0 0 1 2.208 2.142v.055zM15.979 8c-.467 0-.928.08-1.366.238a5.332 5.332 0 0 0-2.614 1.973 5.324 5.324 0 0 0-2.611-1.973A4.037 4.037 0 0 0 8.022 8C5.816 8 4 9.806 4 12s1.816 4 4.022 4c.234 0 .467-.02.698-.06l.286-.068A5.674 5.674 0 0 0 12 13.71a5.67 5.67 0 0 0 2.994 2.162l.287.068c.23.04.464.06.697.061C18.184 16 20 14.194 20 12s-1.816-4-4.021-4z" fill="#FF272C"/></svg>