<svg xmlns="http://www.w3.org/2000/svg" width="14" height="14" fill="#fff" viewBox="0 0 14 14">
    <path fill="inherit" d="M11.266 0H2.734a.984.984 0 0 0-.984.984v12.032c0 .544.44.984.984.984h8.532c.544 0 .984-.44.984-.984V.984A.984.984 0 0 0 11.266 0zm0 12.893H2.734V9.557c0 .006.006.013.014.013h8.504a.014.014 0 0 0 .014-.013v3.336zm0-4.293a.014.014 0 0 0-.014-.014H2.748a.014.014 0 0 0-.014.014V5.264c0 .007.006.013.014.013h8.504a.014.014 0 0 0 .014-.013V8.6zm0-4.293a.014.014 0 0 0-.014-.014H2.748a.014.014 0 0 0-.014.014V.984h8.532v3.323zm-7.37 6.918a.492.492 0 1 0 .985 0 .492.492 0 0 0-.985 0zm0-4.293a.492.492 0 1 0 .985 0 .492.492 0 0 0-.985 0zm0-4.293a.492.492 0 1 0 .985 0 .492.492 0 0 0-.985 0z"/>
</svg>
