<svg width="35" height="35" viewBox="0 0 35 35" fill="none" xmlns="http://www.w3.org/2000/svg">
<g clip-path="url(#clip0)">
<path d="M30.5962 7.84138L23.0658 0.310911C22.8666 0.111862 22.5967 0 22.3151 0H5.15398C4.56781 0 4.09253 0.475277 4.09253 1.06146V33.9385C4.09253 34.5247 4.56781 34.9999 5.15398 34.9999H29.8456C30.4319 34.9999 30.9071 34.5247 30.9071 33.9385V8.59199C30.9071 8.31042 30.7953 8.04049 30.5962 7.84138ZM23.3767 3.62414L27.283 7.53047H23.3767V3.62414ZM6.21551 32.877V2.12298H21.2537V8.59199C21.2537 9.17824 21.729 9.65345 22.3151 9.65345H28.7842V32.877H6.21551Z" fill="#D9D9D9"/>
<path d="M23.2067 15.7856C22.7922 15.371 22.12 15.371 21.7056 15.7856C21.2911 16.2001 21.2911 16.8722 21.7056 17.2867L23.6562 19.2373L21.7056 21.188C21.035 21.8586 21.5191 23 22.4562 23C22.7278 23 22.9995 22.8964 23.2067 22.6891L25.9079 19.9879C26.3225 19.5734 26.3225 18.9013 25.9079 18.4868L23.2067 15.7856Z" fill="#D9D9D9"/>
<path d="M13.2946 15.7856C12.8801 15.371 12.2079 15.371 11.7935 15.7856L9.0923 18.4868C8.67803 18.901 8.67775 19.5735 9.0923 19.9879L11.7935 22.689C12.0007 22.8963 12.2724 22.9999 12.5441 22.9999C13.4812 22.9999 13.9653 21.8584 13.2946 21.1878L11.344 19.2372L13.2946 17.2866C13.7092 16.8721 13.7092 16.2001 13.2946 15.7856Z" fill="#D9D9D9"/>
<path d="M19.4614 13.8003C18.9097 13.6014 18.3016 13.8872 18.1027 14.4386L14.9 23.3155C14.6498 24.0092 15.1668 24.7375 15.8984 24.7375C16.3331 24.7375 16.741 24.4685 16.897 24.036L20.0996 15.1591C20.2985 14.6076 20.0128 13.9992 19.4614 13.8003Z" fill="#D9D9D9"/>
</g>
<defs>
<clipPath id="clip0">
<rect width="35" height="35" fill="white"/>
</clipPath>
</defs>
</svg>
