<svg width="154" height="35" viewBox="0 0 154 35" fill="none" xmlns="http://www.w3.org/2000/svg">
<path d="M35.2 16.3V17.9857C35.2 19.9143 35.2 21.6071 35.2 23.0929C35.1073 22.4529 34.8935 21.8353 34.5693 21.2714C33.836 20.0571 32.604 19.2714 30.25 17.9429V19.1071C30.25 20.0071 30.25 20.8214 30.184 21.5071C30.14 22.3038 29.904 23.0791 29.495 23.7704C29.086 24.4616 28.5156 25.0493 27.83 25.4857C27.2507 25.8857 26.5247 26.2929 25.7253 26.7429L22.2273 28.7143C21.5143 29.1312 20.78 29.5126 20.0273 29.8571C19.2962 30.2063 18.4949 30.3941 17.6807 30.4071C16.8641 30.3942 16.0604 30.2065 15.3267 29.8571C14.574 29.5126 13.8397 29.1312 13.1267 28.7143L9.62867 26.7429C8.82933 26.2929 8.10333 25.8857 7.524 25.4857C6.85098 25.0375 6.28558 24.4527 5.86667 23.7714C5.47234 23.0738 5.23721 22.3014 5.17733 21.5071C5.13333 20.8214 5.13333 20.0071 5.13333 19.1071V17.9429C2.77933 19.2714 1.53267 20.0857 0.814 21.2714C0.351507 22.1271 0.100403 23.0761 0.0806667 24.0429V24.1357C0 22.4071 0 20.4 0 17.9857V16.3C0 8.61429 0 4.77143 2.44933 2.38571C4.89867 0 8.844 0 16.7347 0H18.4653C26.356 0 30.3013 0 32.7507 2.38571C35.2 4.77143 35.2 8.61429 35.2 16.3Z" fill="white"/>
<path d="M35.1999 23.0929C35.1072 22.4529 34.8934 21.8353 34.5692 21.2714C33.8359 20.0572 32.6039 19.2714 30.2499 17.9429V19.1072C30.2499 20.0072 30.2499 20.8214 30.1839 21.5072C30.1399 22.3038 29.9039 23.0792 29.4949 23.7704C29.0859 24.4616 28.5155 25.0493 27.8299 25.4857C27.2506 25.8857 26.5246 26.2929 25.7252 26.7429L22.2272 28.7143C21.5142 29.1312 20.7799 29.5126 20.0272 29.8572C19.2961 30.2064 18.4948 30.3941 17.6806 30.4072C16.864 30.3943 16.0603 30.2065 15.3266 29.8572C14.5739 29.5126 13.8396 29.1312 13.1266 28.7143L9.62857 26.7429C8.82923 26.2929 8.10323 25.8857 7.5239 25.4857C6.85088 25.0375 6.28548 24.4527 5.86657 23.7714C5.47224 23.0738 5.23711 22.3014 5.17723 21.5072C5.13323 20.8214 5.13323 20.0072 5.13323 19.1072V17.9429C2.77923 19.2714 1.53257 20.0857 0.8139 21.2714C0.351406 22.1271 0.100303 23.0761 0.0805664 24.0429V24.1357C0.0805664 24.2143 0.0805664 24.2929 0.0805664 24.3643C0.0805664 24.9643 0.146566 25.5286 0.1979 26.0572C0.1979 26.35 0.2639 26.6357 0.300566 26.9072C0.300566 27.0429 0.300566 27.1857 0.359233 27.3143C0.508307 29.0462 1.24639 30.6801 2.45657 31.9572C4.91323 34.3572 8.87323 34.3572 16.7932 34.3572H18.5312C26.4512 34.3572 30.4112 34.3572 32.8752 31.9572C34.5839 30.2857 35.0752 27.9143 35.2659 24.0286C35.2439 23.7 35.1999 23.3857 35.1999 23.0929Z" fill="#3A3A3A"/>
<path d="M14.0725 7.45006C15.7958 6.47863 16.6538 6.02148 17.5998 6.02148C18.5458 6.02148 19.4038 6.50006 21.1272 7.45006L24.4565 9.32148C26.1798 10.2858 27.0378 10.7501 27.5145 11.5715C27.9912 12.3929 27.9838 13.3358 27.9838 15.2715V19.0143C27.9838 20.9501 27.9838 21.9143 27.5145 22.7143C27.0452 23.5143 26.1798 23.9715 24.4565 24.9572L21.1272 26.8286C19.4038 27.7929 18.5458 28.2572 17.5998 28.2572C16.6538 28.2572 15.7958 27.7715 14.0725 26.8286L10.7432 24.9501C9.01983 23.9858 8.16183 23.5215 7.68516 22.7072C7.20849 21.8929 7.21583 20.9429 7.21583 19.0072V15.2715C7.21583 13.3358 7.21583 12.3643 7.68516 11.5715C8.15449 10.7786 9.01983 10.2858 10.7432 9.32148L14.0725 7.45006Z" fill="#0077FF"/>
<path d="M12.8481 13.3715V15.7715H16.3681V22.6286H18.8321V15.7715H22.3521V13.3715H12.8481Z" fill="white"/>
<path d="M56.2248 25.8857H53.2915V11.8286H47.4248V9.20715H62.0915V11.8286H56.2248V25.8857Z" fill="white"/>
<path d="M66.6529 13.3429C67.3638 13.3072 68.0743 13.4222 68.7351 13.6799C69.396 13.9377 69.9916 14.332 70.4809 14.8358C71.4756 15.9873 71.9725 17.4701 71.8669 18.9715V25.8786H69.8209L69.2342 23.9715C68.836 24.5964 68.2936 25.1222 67.6502 25.5072C66.902 25.9493 66.039 26.1725 65.1642 26.15C64.3692 26.1632 63.5824 25.9918 62.8689 25.65C62.2175 25.3307 61.675 24.8346 61.3069 24.2215C60.93 23.6067 60.737 22.9017 60.7495 22.1858C60.7331 21.643 60.8535 21.1046 61.1003 20.6177C61.347 20.1308 61.7125 19.7103 62.1649 19.3929C63.3982 18.6079 64.86 18.2343 66.3302 18.3286H69.0655C69.0446 17.6151 68.7699 16.9309 68.2882 16.3929C68.0646 16.152 67.7885 15.9628 67.4802 15.8392C67.1719 15.7157 66.8391 15.6608 66.5062 15.6786C65.9853 15.6687 65.4719 15.8005 65.0237 16.0592C64.5755 16.3179 64.2102 16.6932 63.9689 17.1429L61.3802 16.7215C61.6757 15.6961 62.3563 14.8164 63.2869 14.2572C64.2949 13.6427 65.4638 13.3252 66.6529 13.3429ZM65.8242 23.8286C66.2654 23.8484 66.7058 23.7757 67.1157 23.6155C67.5256 23.4553 67.8954 23.2113 68.2002 22.9C68.5076 22.5718 68.7455 22.1876 68.9003 21.7697C69.055 21.3517 69.1237 20.9082 69.1022 20.4643H66.4329C64.5262 20.4643 63.5802 21 63.5802 22.0715C63.5689 22.3165 63.6183 22.5606 63.7242 22.7832C63.8302 23.0057 63.9895 23.2001 64.1889 23.35C64.6611 23.6883 65.2388 23.8573 65.8242 23.8286Z" fill="white"/>
<path d="M74.9395 25.8857V13.5785H77.0368L77.5721 15.3571C77.9136 14.7707 78.4233 14.2941 79.0388 13.9857C79.6824 13.6993 80.3848 13.56 81.0921 13.5785H81.6275L81.8695 16.1857H80.2635C78.5963 16.1857 77.7652 16.9976 77.7701 18.6214V25.8857H74.9395Z" fill="white"/>
<path d="M88.3739 13.3429C89.0849 13.3062 89.7957 13.4208 90.4567 13.6785C91.1178 13.9363 91.7133 14.3312 92.2019 14.8357C93.209 15.9848 93.7167 17.4709 93.6172 18.9786V25.8857H91.5492L90.9332 23.9714C90.535 24.5964 89.9926 25.1222 89.3492 25.5071C88.5981 25.9487 87.7329 26.1718 86.8559 26.15C86.0633 26.1623 85.2791 25.9909 84.5679 25.65C83.9165 25.3307 83.374 24.8345 83.0059 24.2214C82.6268 23.6073 82.4313 22.9023 82.4412 22.1857C82.4261 21.6432 82.547 21.1052 82.7937 20.6185C83.0403 20.1318 83.4052 19.7111 83.8565 19.3929C85.093 18.6087 86.5568 18.2353 88.0292 18.3286H90.7572C90.74 17.6143 90.4648 16.9289 89.9799 16.3929C89.7563 16.152 89.4802 15.9628 89.1719 15.8392C88.8636 15.7156 88.5308 15.6607 88.1979 15.6786C87.677 15.6687 87.1636 15.8005 86.7154 16.0592C86.2671 16.3178 85.9018 16.6931 85.6605 17.1429L83.0792 16.7214C83.3722 15.6969 84.0502 14.8172 84.9785 14.2571C85.995 13.6373 87.1749 13.3196 88.3739 13.3429ZM87.5452 23.8286C87.9851 23.8464 88.4238 23.7728 88.8322 23.6127C89.2406 23.4526 89.6093 23.2096 89.9139 22.9C90.2213 22.5717 90.4592 22.1876 90.6139 21.7697C90.7687 21.3517 90.8373 20.9081 90.8159 20.4643H88.1539C86.257 20.4643 85.3061 21 85.3012 22.0714C85.2917 22.3162 85.3419 22.5597 85.4477 22.782C85.5535 23.0042 85.7119 23.1989 85.9099 23.35C86.3832 23.6861 86.9601 23.8549 87.5452 23.8286Z" fill="white"/>
<path d="M96.6606 25.8857V13.5786H98.758L99.3226 15.4286C99.7222 14.7941 100.282 14.2694 100.948 13.9044C101.614 13.5394 102.364 13.3461 103.129 13.3429C103.998 13.3322 104.853 13.5626 105.593 14.0072C106.326 14.4529 106.924 15.0818 107.323 15.8286C107.756 16.6397 107.972 17.5434 107.954 18.4572V25.8857H105.153V18.7429C105.182 17.9571 104.902 17.1901 104.368 16.6C104.117 16.3293 103.809 16.1149 103.464 15.9718C103.12 15.8288 102.748 15.7604 102.373 15.7715C101.981 15.7599 101.591 15.8304 101.229 15.9783C100.867 16.1261 100.542 16.3479 100.276 16.6286C100.001 16.9152 99.7886 17.2525 99.6501 17.6205C99.5115 17.9886 99.4501 18.3799 99.4693 18.7715V25.9143L96.6606 25.8857Z" fill="white"/>
<path d="M118.565 23.5215L118.323 25.8858H115.955C114.821 25.9646 113.698 25.6255 112.809 24.9358C112.434 24.5729 112.145 24.1354 111.96 23.6534C111.775 23.1713 111.699 22.6561 111.738 22.1429V15.9501H109.663V13.5786H111.738L112.471 10.0072H114.569V13.5786H118.353V15.9501H114.569V22.1429C114.542 22.3301 114.56 22.5207 114.622 22.6999C114.683 22.8791 114.787 23.0419 114.924 23.1755C115.061 23.3091 115.228 23.4099 115.412 23.4699C115.596 23.53 115.792 23.5476 115.984 23.5215H118.565Z" fill="white"/>
<path d="M126.581 26.1143C125.36 26.1312 124.153 25.8539 123.068 25.3072C122.068 24.7764 121.234 23.9914 120.656 23.0358C120.075 22.0264 119.779 20.8854 119.798 19.7286C119.775 18.5759 120.072 17.4386 120.656 16.4358C121.226 15.4736 122.062 14.6866 123.068 14.1643C124.149 13.6041 125.357 13.3191 126.581 13.3358C127.798 13.3165 129 13.6018 130.072 14.1643C131.087 14.6745 131.926 15.4644 132.484 16.4358C133.081 17.4344 133.385 18.5733 133.364 19.7286C133.382 20.8881 133.078 22.0309 132.484 23.0358C131.918 24.0005 131.081 24.7884 130.072 25.3072C128.996 25.8564 127.795 26.134 126.581 26.1143ZM126.581 23.6286C127.096 23.6448 127.609 23.5566 128.087 23.3697C128.566 23.1829 128.999 22.9013 129.36 22.5429C129.726 22.1607 130.01 21.711 130.195 21.2204C130.381 20.7297 130.463 20.2079 130.438 19.6858C130.462 19.1691 130.379 18.6529 130.194 18.1682C130.009 17.6834 129.725 17.24 129.36 16.8643C128.611 16.1683 127.616 15.78 126.581 15.78C125.546 15.78 124.55 16.1683 123.802 16.8643C123.437 17.2403 123.155 17.684 122.971 18.1688C122.787 18.6536 122.705 19.1695 122.731 19.6858C122.705 20.2075 122.786 20.7291 122.97 21.2198C123.154 21.7105 123.436 22.1603 123.802 22.5429C124.162 22.9019 124.596 23.1843 125.074 23.3724C125.552 23.5605 126.065 23.6501 126.581 23.6358V23.6286Z" fill="white"/>
<path d="M141.849 26.1143C140.627 26.1312 139.421 25.8539 138.336 25.3072C137.336 24.7764 136.502 23.9914 135.923 23.0358C135.349 22.0245 135.055 20.8844 135.073 19.7286C135.052 18.577 135.346 17.4408 135.923 16.4358C136.494 15.4736 137.329 14.6866 138.336 14.1643C139.417 13.6041 140.625 13.3191 141.849 13.3358C143.066 13.3165 144.268 13.6018 145.339 14.1643C146.355 14.6745 147.194 15.4644 147.752 16.4358C148.349 17.4344 148.653 18.5733 148.632 19.7286C148.65 20.8881 148.346 22.0309 147.752 23.0358C147.185 24.0005 146.349 24.7884 145.339 25.3072C144.264 25.8564 143.063 26.134 141.849 26.1143ZM141.849 23.6286C142.363 23.6472 142.876 23.5624 143.356 23.3792C143.835 23.1961 144.271 22.9187 144.635 22.5643C144.999 22.1809 145.281 21.7308 145.465 21.2404C145.649 20.7499 145.731 20.2288 145.706 19.7072C145.73 19.1911 145.647 18.6756 145.464 18.191C145.28 17.7065 144.998 17.2627 144.635 16.8858C143.885 16.1893 142.889 15.8007 141.852 15.8007C140.816 15.8007 139.82 16.1893 139.069 16.8858C138.707 17.2627 138.425 17.7065 138.241 18.191C138.057 18.6756 137.975 19.1911 137.999 19.7072C137.974 20.2288 138.056 20.7499 138.24 21.2404C138.424 21.7308 138.706 22.1809 139.069 22.5643C139.432 22.9195 139.866 23.1979 140.344 23.3822C140.823 23.5666 141.335 23.6529 141.849 23.6358V23.6286Z" fill="white"/>
<path d="M154 25.8857H151.191V9.20715H154V25.8857Z" fill="white"/>
</svg>