<svg width="154" height="28" fill="none" xmlns="http://www.w3.org/2000/svg"><path fill-rule="evenodd" clip-rule="evenodd" d="M53.983 21.023h1.998v-2.501h-1.723c-1.574 0-2.274-.576-2.274-1.826v-5.979h3.997V8.266h-3.997V3.013h-2.623v5.253h-2.373v2.451h2.373v5.979c0 2.801 1.65 4.327 4.622 4.327zm10.099.325c1.748 0 3.222-.65 4.296-1.726v1.401h2.623V8.266h-2.623v1.4c-1.074-1.075-2.548-1.725-4.296-1.725-3.722 0-6.595 2.901-6.595 6.703 0 3.803 2.873 6.704 6.595 6.704zm.225-2.551c-2.349 0-4.072-1.726-4.072-4.153 0-2.426 1.723-4.152 4.072-4.152 2.398 0 4.096 1.751 4.096 4.152 0 2.402-1.698 4.153-4.097 4.153zm11.812 2.226h-2.623V8.266h2.623v1.726c.949-1.201 2.173-1.726 3.996-1.726h1.05v2.451h-1.05c-2.373 0-3.996 1.476-3.996 3.677v6.629zm12.189.325c1.748 0 3.222-.65 4.296-1.726v1.401h2.623V8.266h-2.623v1.4c-1.074-1.075-2.548-1.725-4.296-1.725-3.722 0-6.595 2.901-6.595 6.703 0 3.803 2.873 6.704 6.595 6.704zm.225-2.551c-2.349 0-4.072-1.726-4.072-4.153 0-2.426 1.724-4.152 4.072-4.152 2.398 0 4.096 1.751 4.096 4.152 0 2.402-1.698 4.153-4.096 4.153zm11.812 2.226h-2.623V8.266h2.623v1.276c.874-.926 2.173-1.601 3.897-1.601 3.172 0 5.321 2.35 5.321 5.853v7.23h-2.623v-7.155c0-2.076-1.249-3.377-3.123-3.377-1.973 0-3.472 1.476-3.472 3.277v7.254zm17.409 0h1.998v-2.501h-1.723c-1.574 0-2.273-.576-2.273-1.826v-5.979h3.996V8.266h-3.996V3.013h-2.623v5.253h-2.373v2.451h2.373v5.979c0 2.801 1.648 4.327 4.621 4.327zm16.59-6.378c0 3.752-3.022 6.703-6.819 6.703s-6.82-2.951-6.82-6.703c0-3.753 3.023-6.704 6.82-6.704s6.819 2.951 6.819 6.704zm-10.891 0c0 2.4 1.723 4.152 4.072 4.152 2.348 0 4.071-1.751 4.071-4.152 0-2.402-1.723-4.153-4.071-4.153-2.349 0-4.072 1.751-4.072 4.152zm19.22 6.703c3.797 0 6.821-2.951 6.821-6.703 0-3.753-3.024-6.704-6.821-6.704-3.797 0-6.82 2.951-6.82 6.704 0 3.752 3.023 6.703 6.82 6.703zm0-2.551c-2.348 0-4.072-1.751-4.072-4.152 0-2.402 1.724-4.153 4.072-4.153s4.073 1.751 4.073 4.152c0 2.402-1.725 4.153-4.073 4.153zM154 21.023h-2.623V3.013H154v18.01z" fill="#fff"/><path fill-rule="evenodd" clip-rule="evenodd" d="M18.49 1.37c.927.606 2.564 2.025 4.321 3.784 1.723 1.726 3.12 3.336 3.743 4.273a8.124 8.124 0 0 1 .04 9.081c-.602.927-2.021 2.57-3.783 4.334-1.761 1.764-3.402 3.186-4.328 3.79a8.095 8.095 0 0 1-9.075-.046c-.936-.626-2.541-2.022-4.26-3.744-1.754-1.756-3.169-3.392-3.776-4.321a8.126 8.126 0 0 1-.12-8.852c.52-.883 2.013-2.63 3.895-4.514 1.883-1.885 3.627-3.38 4.51-3.902a8.096 8.096 0 0 1 8.833.118z" fill="url(#paint0_radial)"/><path fill-rule="evenodd" clip-rule="evenodd" d="M30.473 3.896c.742.485 2.052 1.62 3.457 3.027 1.379 1.38 2.495 2.669 2.994 3.418a6.499 6.499 0 0 1 .033 7.265c-.482.742-1.618 2.056-3.027 3.468-1.409 1.41-2.722 2.548-3.462 3.03a6.476 6.476 0 0 1-7.26-.035c-.75-.502-2.033-1.618-3.409-2.995-1.403-1.405-2.534-2.714-3.02-3.458a6.5 6.5 0 0 1-.097-7.08c.418-.707 1.611-2.105 3.117-3.613s2.902-2.703 3.607-3.121a6.477 6.477 0 0 1 7.067.094z" fill="url(#paint1_radial)"/><path fill-rule="evenodd" clip-rule="evenodd" d="M22.283 4.632c.175.17.35.345.528.522 1.723 1.726 3.12 3.336 3.743 4.273a8.124 8.124 0 0 1 .04 9.081c-.602.927-2.021 2.57-3.783 4.334-.177.178-.353.352-.528.522a36.963 36.963 0 0 1-2.484-2.29c-1.403-1.405-2.534-2.714-3.02-3.458a6.5 6.5 0 0 1-.097-7.08c.418-.707 1.611-2.105 3.117-3.613a36.989 36.989 0 0 1 2.484-2.29z" fill="#FF0D2A"/><defs><radialGradient id="paint0_radial" cx="0" cy="0" r="1" gradientUnits="userSpaceOnUse" gradientTransform="matrix(-28.3546 0 0 -28.3933 28.172 14.677)"><stop offset=".373" stop-color="#FF0D0D" stop-opacity=".51"/><stop offset="1" stop-color="#FF0D2A"/></radialGradient><radialGradient id="paint1_radial" cx="0" cy="0" r="1" gradientUnits="userSpaceOnUse" gradientTransform="matrix(20.778 0 0 20.8063 17.208 13.944)"><stop offset=".33" stop-color="red" stop-opacity=".38"/><stop offset="1" stop-color="#FF001F" stop-opacity=".88"/></radialGradient></defs></svg>