<svg xmlns="http://www.w3.org/2000/svg" width="12" height="12"><path fill="inherit" d="M11.27 5.15l-.04-.28-.86-.29a4.54 4.54 0 0 0-.28-.67l.4-.81-.16-.24a5.48 5.48 0 0 0-1.2-1.2L8.9 1.5l-.81.4a4.6 4.6 0 0 0-.68-.27L7.12.77 6.86.73A5.3 5.3 0 0 0 6 .66c-.26 0-.53.02-.85.07l-.28.04-.28.86a4.75 4.75 0 0 0-.68.28l-.81-.4-.23.16a5.37 5.37 0 0 0-1.2 1.2l-.16.23.4.81c-.1.22-.2.45-.28.68l-.86.28-.04.28a5.3 5.3 0 0 0 0 1.7l.04.28.86.29c.08.23.17.46.28.67l-.4.81.17.23a5.43 5.43 0 0 0 1.2 1.2l.22.16.81-.4c.22.1.44.2.68.28l.28.86.28.04a5.28 5.28 0 0 0 1.7 0l.28-.04.28-.86c.23-.08.46-.17.68-.28l.8.4.24-.16c.25-.18.46-.36.65-.55a5.39 5.39 0 0 0 .55-.65l.16-.23-.4-.81c.1-.22.2-.44.28-.68l.86-.28.04-.28c.05-.31.07-.59.07-.85a4.74 4.74 0 0 0-.07-.85zM10.5 6c0 .16 0 .32-.03.5l-.41.14-.37.12-.11.37c-.07.21-.15.42-.26.62l-.18.34.37.73a4.25 4.25 0 0 1-.32.37l-.37.33-.73-.37-.34.18c-.2.1-.42.19-.63.26l-.37.11-.12.36-.13.42a3.98 3.98 0 0 1-.99 0l-.14-.42-.12-.36-.37-.12a3.52 3.52 0 0 1-.61-.25l-.34-.18-.35.17-.4.2a4.16 4.16 0 0 1-.68-.7l.36-.73-.18-.34a3.6 3.6 0 0 1-.25-.62l-.12-.37-.78-.26a3.99 3.99 0 0 1 0-.98l.78-.26.11-.37c.07-.2.16-.42.26-.62l.18-.34-.17-.34-.2-.4c.2-.25.44-.48.7-.69l.73.37.34-.18c.2-.1.4-.19.62-.26l.37-.11.12-.37.14-.41a4.35 4.35 0 0 1 .98 0l.26.78.37.1c.21.08.42.16.62.27l.34.17.73-.36a4.6 4.6 0 0 1 .7.7l-.36.72.17.34c.1.2.2.42.26.63l.12.37.36.12.41.14c.03.17.04.33.03.48zM6 3.96A2.04 2.04 0 0 0 3.96 6c0 1.13.92 2.04 2.04 2.04A2.04 2.04 0 0 0 8.04 6 2.04 2.04 0 0 0 6 3.96zm.85 2.89A1.2 1.2 0 0 1 6 7.2c-.32 0-.62-.13-.85-.35A1.2 1.2 0 0 1 4.8 6c0-.32.13-.62.36-.85a1.2 1.2 0 0 1 1.69 0 1.2 1.2 0 0 1 0 1.7z"/></svg>
