<?xml version="1.0" encoding="utf-8"?>
<!-- Generator: Adobe Illustrator 12.0.0, SVG Export Plug-In . SVG Version: 6.00 Build 51448)  -->
<!DOCTYPE svg PUBLIC "-//W3C//DTD SVG 1.1//EN" "http://www.w3.org/Graphics/SVG/1.1/DTD/svg11.dtd" [
	<!ENTITY ns_svg "http://www.w3.org/2000/svg">
	<!ENTITY ns_xlink "http://www.w3.org/1999/xlink">
]>
<svg  version="1.1" id="Layer_2" xmlns="&ns_svg;" xmlns:xlink="&ns_xlink;" width="50" height="50" viewBox="0 0 50 50"
	 overflow="visible" enable-background="new 0 0 50 50" xml:space="preserve">
<path fill="#838383" stroke="#DCDCDC" stroke-width="3" d="M45.646,38.852c0,3.754-3.043,6.795-6.795,6.795H11.148
	c-3.753,0-6.795-3.041-6.795-6.795V11.148c0-3.753,3.042-6.795,6.795-6.795h27.704c3.752,0,6.795,3.042,6.795,6.795V38.852z"/>
<path fill="#FFFFFF" d="M25.094,36.761c0.67,0.832,0.537,2.049-0.296,2.718l0,0c-0.833,0.67-2.049,0.535-2.718-0.296L11.954,26.582
	c-0.669-0.834-0.537-2.051,0.296-2.719l0,0c0.833-0.669,2.05-0.536,2.72,0.297L25.094,36.761z"/>
<path fill="#FFFFFF" d="M37.007,14.999c0.604-0.881,1.807-1.107,2.688-0.504l0,0c0.883,0.604,1.105,1.807,0.504,2.688L25.331,38.956
	c-0.603,0.883-1.805,1.108-2.688,0.505l0,0c-0.882-0.602-1.108-1.805-0.505-2.688L37.007,14.999z"/>
</svg>
