<svg xmlns="http://www.w3.org/2000/svg" width="48" height="48" fill="none" viewBox="0 0 48 48">
    <path fill="#F5222D" d="M41.494 20.92l-.01-.037-5.259-13.364A1.81 1.81 0 0 0 34.5 6.244H13.181c-.797 0-1.504.53-1.73 1.293L6.535 20.766l-.014.032-.009.038c-.061.23-.08.464-.047.694-.005.075-.01.15-.01.225v17.151c0 1.57 1.28 2.85 2.85 2.85h29.4c1.571 0 2.85-1.28 2.855-2.85V21.755c0-.061 0-.122-.004-.174.019-.23 0-.45-.061-.66zm-13.866-2.015l-.014.735c-.037 2.105-1.49 3.52-3.614 3.52-1.036 0-1.927-.332-2.569-.965-.642-.633-.994-1.514-1.012-2.555l-.014-.735h-9.647l3.726-9.061h18.713l3.83 9.06h-9.399zm-17.578 3.6h7.373c1.14 2.676 3.563 4.256 6.582 4.256 1.58 0 3.047-.44 4.233-1.275 1.04-.731 1.851-1.753 2.376-2.981h7.336v15.651h-27.9V22.505z"/>
</svg>
