<svg width="14" height="59" xmlns="http://www.w3.org/2000/svg"><path d="M7 56.17L14 59v-3H0v3l7-2.83zM0 0h14v56H0V0z" fill="#f5222d"/><path d="M8.66 33.5v2.47H4v1.18h5.64v-3.64h-.98zM8.66 29.07v2.56H7.24v-2.41h-.9v2.4H4.96v-2.55H4v3.74h5.64v-3.74h-.98zM9.64 24.53v-1.25L4 25.24v1.39l5.64 1.95v-1.2l-1.37-.44v-1.98l1.37-.43zm-4.56 1.43v-.02l2.3-.73v1.48l-2.3-.73zM4 22.7h5.64v-2.15c0-1.7-1.05-2.7-2.84-2.7-1.8 0-2.8 1-2.8 2.7v2.15zm.97-1.18v-.83c0-1.04.65-1.63 1.83-1.63 1.22 0 1.86.57 1.86 1.63v.83H4.97zM8.66 13.36v2.56H7.24V13.5h-.9v2.4H4.96v-2.55H4v3.74h5.64v-3.74h-.98zM4.92 11.33v-1c0-.59.35-.96.9-.96.56 0 .9.35.9.95v1.01h-1.8zm2.65 0v-.94l2.07-1.05V8L7.4 9.19a1.66 1.66 0 0 0-1.6-1.03c-1.12 0-1.8.75-1.8 2.04v2.31h5.64v-1.18H7.57zM3.89 51.43L3 46l2.44 3.46L7 46l1.56 3.46L11 46l-.89 5.43H3.9zm6.22 1.48c0 .28-.2.5-.44.5H4.33c-.24 0-.44-.22-.44-.5v-.49h6.22v.5z" fill="#fff" fill-opacity=".65"/></svg>