<svg xmlns="http://www.w3.org/2000/svg" width="16" height="16" fill="none" viewBox="0 0 16 16">
    <path fill="#000" d="M14.685 3.627A4.486 4.486 0 0 0 11.52 2.33h-.012c-.576 0-1.137.107-1.672.319a4.424 4.424 0 0 0-1.48.967l-4.177 4.13a2.493 2.493 0 0 0-.745 1.793c.002.678.27 1.315.754 1.794a2.567 2.567 0 0 0 1.811.745h.006c.683 0 1.323-.262 1.804-.736l3.666-3.624a.626.626 0 0 0 0-.896.642.642 0 0 0-.904 0l-3.666 3.623a1.27 1.27 0 0 1-.902.366H6a1.295 1.295 0 0 1-.911-.373 1.26 1.26 0 0 1-.377-.9c-.002-.34.13-.657.37-.894l4.177-4.131a3.173 3.173 0 0 1 2.25-.915h.008a3.22 3.22 0 0 1 2.268.927c.602.598.936 1.392.938 2.24a3.102 3.102 0 0 1-.924 2.229l-4.432 4.386a4.72 4.72 0 0 1-3.333 1.353h-.012a4.759 4.759 0 0 1-3.353-1.374 4.636 4.636 0 0 1-1.388-3.314 4.59 4.59 0 0 1 1.37-3.302l5.722-5.658a.626.626 0 0 0 0-.897.644.644 0 0 0-.906-.002l-5.722 5.66A5.85 5.85 0 0 0 0 10.048c.002.773.15 1.526.445 2.239a5.997 5.997 0 0 0 3.31 3.274c.717.288 1.48.435 2.263.439h.016c.779 0 1.534-.143 2.248-.429a5.893 5.893 0 0 0 1.985-1.297L14.7 9.89A4.394 4.394 0 0 0 16 6.758a4.404 4.404 0 0 0-1.315-3.13z" opacity=".65"/>
</svg>
