<svg width="140" height="140" viewBox="0 0 140 140" fill="none" xmlns="http://www.w3.org/2000/svg">
<path d="M4 68C4 37.8301 4 22.7452 13.3726 13.3726C22.7452 4 37.8301 4 68 4H72C102.17 4 117.255 4 126.627 13.3726C136 22.7452 136 37.8301 136 68V72C136 102.17 136 117.255 126.627 126.627C117.255 136 102.17 136 72 136H68C37.8301 136 22.7452 136 13.3726 126.627C4 117.255 4 102.17 4 72V68Z" fill="#3A3A3A"/>
<path d="M111.843 67.8249V71.8401C111.843 76.4338 111.843 80.466 111.843 84.0048C111.622 82.4806 111.113 81.0095 110.341 79.6664C108.594 76.7741 105.659 74.9026 100.052 71.7381V74.5113C100.052 76.655 100.052 78.5945 99.8952 80.2278C99.7905 82.1254 99.2283 83.9722 98.2542 85.6186C97.28 87.265 95.9213 88.6648 94.2882 89.7044C92.9083 90.6571 91.1791 91.6269 89.2751 92.6988L80.9433 97.3945C79.2448 98.3875 77.4959 99.296 75.7031 100.117C73.9615 100.948 72.053 101.396 70.1136 101.427C68.1685 101.396 66.2542 100.949 64.5066 100.117C62.7138 99.296 60.9648 98.3875 59.2664 97.3945L50.9345 92.6988C49.0306 91.6269 47.3013 90.6571 45.9214 89.7044C44.3183 88.6368 42.9716 87.2438 41.9738 85.6211C41.0346 83.9593 40.4745 82.1197 40.3319 80.2278C40.2271 78.5945 40.2271 76.655 40.2271 74.5113V71.7381C34.6201 74.9026 31.6507 76.8421 29.9389 79.6664C28.8373 81.7045 28.2392 83.9648 28.1921 86.2676V86.4888C28 82.3715 28 77.5907 28 71.8401V67.8249C28 49.5184 28 40.3651 33.8341 34.6825C39.6681 29 49.0655 29 67.8603 29H71.9826C90.7773 29 100.175 29 106.009 34.6825C111.843 40.3651 111.843 49.5184 111.843 67.8249Z" fill="white"/>
<path d="M111.843 84.0048C111.622 82.4806 111.112 81.0095 110.34 79.6664C108.594 76.774 105.659 74.9026 100.052 71.738V74.5112C100.052 76.655 100.052 78.5945 99.895 80.2278C99.7903 82.1253 99.2281 83.9722 98.2539 85.6186C97.2798 87.265 95.9211 88.6647 94.288 89.7044C92.9081 90.6571 91.1788 91.6269 89.2749 92.6987L80.943 97.3945C79.2446 98.3875 77.4956 99.296 75.7028 100.117C73.9612 100.948 72.0527 101.396 70.1133 101.427C68.1683 101.396 66.254 100.949 64.5063 100.117C62.7135 99.296 60.9646 98.3875 59.2661 97.3945L50.9343 92.6987C49.0303 91.6269 47.3011 90.6571 45.9212 89.7044C44.3181 88.6368 42.9714 87.2438 41.9736 85.6211C41.0343 83.9593 40.4743 82.1197 40.3316 80.2278C40.2268 78.5945 40.2268 76.655 40.2268 74.5112V71.738C34.6198 74.9026 31.6504 76.8421 29.9386 79.6664C28.837 81.7044 28.2389 83.9648 28.1919 86.2676V86.4888C28.1919 86.6759 28.1919 86.8631 28.1919 87.0332C28.1919 88.4624 28.3491 89.8064 28.4714 91.0654C28.4714 91.763 28.6286 92.4435 28.7159 93.0901C28.7159 93.4133 28.7159 93.7536 28.8557 94.0598C29.2107 98.1849 30.9688 102.077 33.8513 105.119C39.7028 110.835 49.1351 110.835 67.9998 110.835H72.1395C91.0041 110.835 100.436 110.835 106.305 105.119C110.375 101.137 111.546 95.489 112 86.2336C111.947 85.451 111.843 84.7024 111.843 84.0048Z" fill="#3A3A3A"/>
<path d="M61.5194 46.7452C65.6242 44.4314 67.6679 43.3425 69.9211 43.3425C72.1744 43.3425 74.2181 44.4824 78.3229 46.7452L86.253 51.2028C90.3578 53.4996 92.4015 54.6055 93.5369 56.5621C94.6722 58.5186 94.6548 60.7644 94.6548 65.3751V74.2902C94.6548 78.9009 94.6548 81.1977 93.5369 83.1032C92.419 85.0087 90.3578 86.0976 86.253 88.4455L78.3229 92.903C74.2181 95.1999 72.1744 96.3057 69.9211 96.3057C67.6679 96.3057 65.6242 95.1488 61.5194 92.903L53.5893 88.4285C49.4845 86.1316 47.4408 85.0258 46.3054 83.0862C45.17 81.1467 45.1875 78.8839 45.1875 74.2732V65.3751C45.1875 60.7644 45.1875 58.4506 46.3054 56.5621C47.4233 54.6736 49.4845 53.4996 53.5893 51.2028L61.5194 46.7452Z" fill="#0077FF"/>
<path d="M58.603 60.8495V66.566H66.9873V82.8991H72.8563V66.566H81.2406V60.8495H58.603Z" fill="white"/>
</svg>
