<svg width="24" height="24" fill="none" xmlns="http://www.w3.org/2000/svg"><circle cx="12" cy="12" r="12" fill="#F0F2F5"/><path fill-rule="evenodd" clip-rule="evenodd" d="M11.77 6.59c.4.26 1.08.86 1.82 1.62.73.74 1.31 1.43 1.58 1.83.78 1.17.79 2.72.01 3.9-.25.39-.85 1.1-1.59 1.85a14 14 0 01-1.82 1.62 3.35 3.35 0 01-3.81-.02 14.4 14.4 0 01-1.8-1.6 14.18 14.18 0 01-1.58-1.85 3.54 3.54 0 01-.05-3.8c.22-.37.84-1.12 1.63-1.93.8-.8 1.53-1.45 1.9-1.67a3.35 3.35 0 013.71.05z" fill="url(#paint0_radial)"/><path fill-rule="evenodd" clip-rule="evenodd" d="M16.81 7.67c.32.2.87.7 1.46 1.3.58.59 1.05 1.14 1.26 1.46.62.94.63 2.18.01 3.12-.2.31-.68.88-1.27 1.48-.6.6-1.15 1.1-1.46 1.3-.92.63-2.14.63-3.05-.02-.32-.21-.86-.69-1.43-1.28-.6-.6-1.07-1.16-1.27-1.48-.6-.91-.62-2.11-.04-3.04.17-.3.67-.9 1.3-1.54.64-.65 1.23-1.16 1.52-1.34.9-.59 2.08-.57 2.97.04z" fill="url(#paint1_radial)"/><path fill-rule="evenodd" clip-rule="evenodd" d="M13.37 7.99l.22.22c.73.74 1.31 1.43 1.58 1.83.78 1.17.79 2.72.01 3.9A14.13 14.13 0 0113.37 16a15.72 15.72 0 01-2.31-2.46c-.6-.91-.62-2.11-.04-3.03a15.7 15.7 0 012.36-2.53z" fill="#FF0D2A"/><defs><radialGradient id="paint0_radial" cx="0" cy="0" r="1" gradientUnits="userSpaceOnUse" gradientTransform="matrix(-11.9229 0 0 -12.1686 15.85 12.29)"><stop offset=".37" stop-color="#FF0D0D" stop-opacity=".51"/><stop offset="1" stop-color="#FF0D2A"/></radialGradient><radialGradient id="paint1_radial" cx="0" cy="0" r="1" gradientUnits="userSpaceOnUse" gradientTransform="matrix(8.737 0 0 8.917 11.24 11.98)"><stop offset=".33" stop-color="red" stop-opacity=".38"/><stop offset="1" stop-color="#FF001F" stop-opacity=".88"/></radialGradient></defs></svg>