<svg width="42" height="8" xmlns="http://www.w3.org/2000/svg"><path d="M16.5 5.66h-2.47V1h-1.18v5.64h3.64v-.98zM20.93 5.66h-2.56V4.24h2.41v-.9h-2.4V1.96h2.55V1h-3.74v5.64h3.74v-.98zM25.47 6.64h1.25L24.76 1h-1.39l-1.95 5.64h1.2l.44-1.37h1.98l.43 1.37zm-1.43-4.56h.02l.73 2.3H23.3l.73-2.3zM27.3 1v5.64h2.15c1.7 0 2.7-1.05 2.7-2.84 0-1.8-1-2.8-2.7-2.8H27.3zm1.18.97h.83c1.04 0 1.63.65 1.63 1.83 0 1.22-.57 1.86-1.63 1.86h-.83V1.97zM36.64 5.66h-2.56V4.24h2.41v-.9h-2.4V1.96h2.55V1H32.9v5.64h3.74v-.98zM38.67 1.92h1c.59 0 .95.35.95.9 0 .56-.34.9-.94.9h-1.01v-1.8zm0 2.65h.94l1.05 2.07H42L40.81 4.4a1.66 1.66 0 0 0 1.03-1.6c0-1.12-.75-1.8-2.04-1.8h-2.31v5.64h1.18V4.57zM.89 5.43L0 0l2.44 3.46L4 0l1.56 3.46L8 0l-.89 5.43H.9zM7.1 6.91c0 .28-.2.5-.44.5H1.33C1.1 7.4.9 7.19.9 6.9v-.49H7.1v.5z" fill="#F5222D"/></svg>