<svg xmlns="http://www.w3.org/2000/svg" width="14" height="14"><path fill="#000" fill-opacity=".65" d="M7.392 9.142l-2.444 2.446a1.78 1.78 0 0 1-1.266.525c-.479 0-.929-.186-1.266-.525a1.784 1.784 0 0 1-.002-2.532L4.86 6.61a.491.491 0 1 0-.696-.696L1.72 8.36a2.758 2.758 0 0 0-.814 1.963c0 .741.289 1.439.814 1.962a2.767 2.767 0 0 0 1.961.812 2.76 2.76 0 0 0 1.962-.812l2.446-2.446a.491.491 0 1 0-.696-.696zm4.89-7.422a2.778 2.778 0 0 0-3.924 0L5.912 4.166a.491.491 0 1 0 .696.696l2.445-2.446a1.793 1.793 0 0 1 3.059 1.266c0 .478-.186.928-.525 1.266L9.14 7.394a.491.491 0 0 0 .349.84.493.493 0 0 0 .348-.144l2.446-2.446a2.777 2.777 0 0 0-.001-3.924zM6.639 8.087l1.394-1.395a.491.491 0 1 0-.696-.695L5.942 7.39a.491.491 0 1 0 .696.696z"/></svg>